<svg width="49" height="59" viewBox="0 0 49 59" fill="none" xmlns="http://www.w3.org/2000/svg">
<path d="M25.7272 9.69595C17.5672 9.69595 12.6712 14.7839 11.8072 26.304L1.53519 25.44C2.68719 9.59995 10.5592 -5.14984e-05 25.9192 -5.14984e-05C39.6472 -5.14984e-05 47.4232 6.23995 47.4232 18.24C47.4232 29.088 39.4552 34.656 24.9592 37.824C14.3032 40.704 11.2312 42.912 10.8472 49.248C14.7832 49.152 19.5832 49.056 23.0392 49.056H48.0952V58.752H0.191188C0.0951876 56.832 -0.000812411 54.816 -0.000812411 52.8C-0.000812411 39.168 6.23919 33.6 20.7352 29.76C33.0232 26.688 36.3832 23.616 36.3832 18.144C36.3832 13.4399 33.0232 9.69595 25.7272 9.69595Z" fill="url(#paint0_linear_1518_725)"/>
<defs>
<linearGradient id="paint0_linear_1518_725" x1="0.595759" y1="-1.37868" x2="55.1908" y2="4.86268" gradientUnits="userSpaceOnUse">
<stop stop-color="white"/>
<stop offset="0.25" stop-color="#FFFAFF"/>
<stop offset="0.514423" stop-color="#C6FFD0"/>
<stop offset="0.783654" stop-color="#B4E4BE"/>
<stop offset="1" stop-color="#A8A8A8"/>
</linearGradient>
</defs>
</svg>
