<svg width="48" height="60" viewBox="0 0 48 60" fill="none" xmlns="http://www.w3.org/2000/svg">
<path d="M25.1511 59.5205C9.69506 59.5205 1.24706 52.5125 -0.000937432 38.4005L10.7511 37.5365C11.8071 45.5045 15.2631 50.0165 25.3431 50.0165C32.7351 50.0165 36.8631 46.8485 36.8631 41.5685C36.8631 36.2885 34.4631 33.6965 25.5351 33.6965H16.1271V25.5365H25.3431C31.1031 25.5365 35.1351 23.3285 35.1351 17.6645C35.1351 11.9045 31.5831 9.50454 24.6711 9.50454C16.3191 9.50454 13.3431 13.6325 12.2871 20.6405L2.01506 19.6805C3.45506 7.77654 10.3671 0.000545502 24.5751 0.000545502C38.3991 0.000545502 45.3111 5.08854 45.3111 15.3605C45.3111 22.7525 41.3751 27.0725 34.1751 29.0885V29.2805C44.5431 30.5285 47.8071 34.7525 47.8071 42.7205C47.8071 52.7045 40.8951 59.5205 25.1511 59.5205Z" fill="url(#paint0_linear_1518_721)"/>
<defs>
<linearGradient id="paint0_linear_1518_721" x1="1.18192" y1="-1.57009" x2="53.7283" y2="4.20602" gradientUnits="userSpaceOnUse">
<stop stop-color="white"/>
<stop offset="0.25" stop-color="#FFFAFF"/>
<stop offset="0.514423" stop-color="#C6FFD0"/>
<stop offset="0.783654" stop-color="#B4E4BE"/>
<stop offset="1" stop-color="#A8A8A8"/>
</linearGradient>
</defs>
</svg>
