<svg width="581" height="287" viewBox="0 0 581 287" fill="none" xmlns="http://www.w3.org/2000/svg">
<g filter="url(#filter0_d_1346_275)">
<path d="M227.21 253H217.49V228.7C217.49 224.5 216.47 221.35 214.43 219.25C212.45 217.15 209.12 216.1 204.44 216.1C199.58 216.1 195.98 217.36 193.64 219.88C191.36 222.34 190.22 226 190.22 230.86L188.51 230.95L188.06 222.13H190.04C190.52 219.61 191.48 217.24 192.92 215.02C194.42 212.74 196.46 210.91 199.04 209.53C201.68 208.09 204.89 207.37 208.67 207.37C212.81 207.37 216.26 208.21 219.02 209.89C221.78 211.57 223.82 213.82 225.14 216.64C226.52 219.46 227.21 222.61 227.21 226.09V253ZM190.22 253H180.5V208.27H189.41V222.31L190.22 222.76V253ZM245.591 253H235.871V208.27H245.591V253ZM245.591 203.05H235.871V192.7H245.591V203.05ZM278.082 269.2C273.642 269.2 269.742 268.51 266.382 267.13C263.022 265.81 260.382 263.89 258.462 261.37C256.602 258.85 255.672 255.79 255.672 252.19H265.302C265.302 254.35 265.752 256.09 266.652 257.41C267.552 258.73 268.962 259.66 270.882 260.2C272.862 260.8 275.442 261.1 278.622 261.1C282.042 261.1 284.742 260.71 286.722 259.93C288.762 259.21 290.232 257.92 291.132 256.06C292.032 254.2 292.482 251.62 292.482 248.32V222.13L293.202 221.5V208.27H302.112V247.78C302.112 252.76 301.122 256.81 299.142 259.93C297.162 263.11 294.372 265.45 290.772 266.95C287.172 268.45 282.942 269.2 278.082 269.2ZM274.032 248.95C269.592 248.95 265.782 248.08 262.602 246.34C259.482 244.6 257.052 242.17 255.312 239.05C253.632 235.93 252.792 232.3 252.792 228.16C252.792 224.02 253.662 220.39 255.402 217.27C257.202 214.15 259.722 211.72 262.962 209.98C266.262 208.24 270.162 207.37 274.662 207.37C279.342 207.37 283.302 208.42 286.542 210.52C289.842 212.56 291.882 215.53 292.662 219.43H294.732L294.192 227.26H292.482C292.482 224.74 291.882 222.64 290.682 220.96C289.482 219.22 287.772 217.93 285.552 217.09C283.332 216.25 280.632 215.83 277.452 215.83C274.392 215.83 271.722 216.22 269.442 217C267.222 217.78 265.512 219.07 264.312 220.87C263.172 222.61 262.602 225.04 262.602 228.16C262.602 231.22 263.172 233.65 264.312 235.45C265.452 237.25 267.102 238.57 269.262 239.41C271.482 240.19 274.122 240.58 277.182 240.58C282.102 240.58 285.882 239.56 288.522 237.52C291.162 235.48 292.482 232.48 292.482 228.52H294.192V237.34H291.852C291.072 240.76 289.182 243.55 286.182 245.71C283.182 247.87 279.132 248.95 274.032 248.95ZM358.175 253H348.545V228.7C348.545 224.2 347.495 220.99 345.395 219.07C343.295 217.09 339.905 216.1 335.225 216.1C331.685 216.1 328.865 216.73 326.765 217.99C324.665 219.19 323.135 220.93 322.175 223.21C321.275 225.43 320.825 228.13 320.825 231.31L318.935 231.4L319.385 221.95H321.365C321.905 219.43 322.865 217.06 324.245 214.84C325.685 212.62 327.695 210.82 330.275 209.44C332.855 208.06 336.035 207.37 339.815 207.37C343.895 207.37 347.285 208.21 349.985 209.89C352.745 211.51 354.785 213.76 356.105 216.64C357.485 219.46 358.175 222.7 358.175 226.36V253ZM320.825 253H311.105V192.7H320.825V253ZM396.256 253H385.996C381.196 253 377.386 251.83 374.566 249.49C371.806 247.15 370.426 243.28 370.426 237.88V198.46H380.056V237.34C380.056 240.1 380.716 241.96 382.036 242.92C383.356 243.82 385.396 244.27 388.156 244.27H396.256V253ZM396.256 216.37H362.866V208.27H396.256V216.37Z" fill="white"/>
</g>
<path d="M15.48 126.84V129C24.3 131.7 33.3 134.4 41.94 137.28L81.72 150.42V171.84L2.7 137.64V118.02L81.72 83.64V105.06L41.94 118.38C33.84 121.08 24.66 123.96 15.48 126.84ZM139.254 63.66L106.674 198.3H85.6139L118.554 63.66H139.254ZM223.681 121.62L204.961 124.68C202.621 112.62 196.141 104.88 183.001 104.88C169.141 104.88 159.421 113.52 159.421 131.7C159.421 148.98 168.961 158.52 183.361 158.52C197.761 158.52 202.621 149.52 205.321 137.46L223.861 141.24C220.441 162.84 208.201 176.34 183.721 176.34C157.081 176.34 139.621 160.68 139.621 131.88C139.621 103.8 157.261 87.24 183.181 87.24C208.561 87.24 220.261 99.84 223.681 121.62ZM271.77 176.34C244.59 176.34 228.39 159.42 228.39 131.52C228.39 103.62 245.67 87.24 271.77 87.24C297.69 87.24 314.97 103.62 314.97 131.52C314.97 159.42 298.59 176.34 271.77 176.34ZM271.77 104.88C256.65 104.88 247.83 115.32 247.83 131.34C247.83 147.72 256.29 158.52 271.59 158.52C286.89 158.52 295.71 147.72 295.71 131.34C295.71 115.32 286.71 104.88 271.77 104.88ZM319.269 132.06C319.269 103.98 331.149 87.06 352.569 87.24C369.669 87.06 379.029 96.24 382.629 113.7H382.989V63.66H402.429V174H382.989V150.06H382.629C378.849 167.52 368.769 176.34 352.569 176.34C330.789 176.34 319.269 159.42 319.269 132.06ZM382.989 132.6V131.16C382.989 115.14 374.349 104.52 360.489 104.52C345.549 104.52 338.529 114.78 338.529 132.06C338.529 148.8 345.369 158.7 360.489 158.7C374.349 158.7 382.989 149.34 382.989 132.6ZM454.051 176.16C428.131 176.16 410.851 160.86 410.851 132.78C410.851 104.16 427.591 87.24 454.051 87.24C479.791 87.24 492.751 103.44 492.751 126.66V126.84C492.751 130.26 492.931 133.5 492.391 138H430.291C432.091 152.22 440.011 159.24 454.231 159.24C467.731 159.24 472.951 152.58 475.291 143.94L492.211 148.8C487.891 164.82 476.371 176.16 454.051 176.16ZM430.471 123.6H474.751C473.671 110.28 466.651 103.62 453.511 103.62C440.731 103.62 432.631 109.92 430.471 123.6ZM564.836 128.46V126.3C556.196 123.6 547.196 120.9 538.556 118.02L498.776 104.88V83.46L577.796 117.66V137.28L498.776 171.66V150.24L538.556 136.92C546.476 134.22 555.656 131.34 564.836 128.46Z" fill="url(#paint0_linear_1346_275)"/>
<defs>
<filter id="filter0_d_1346_275" x="153.2" y="165.399" width="260.358" height="121.1" filterUnits="userSpaceOnUse" color-interpolation-filters="sRGB">
<feFlood flood-opacity="0" result="BackgroundImageFix"/>
<feColorMatrix in="SourceAlpha" type="matrix" values="0 0 0 0 0 0 0 0 0 0 0 0 0 0 0 0 0 0 127 0" result="hardAlpha"/>
<feOffset dx="-5" dy="-5"/>
<feGaussianBlur stdDeviation="11.15"/>
<feComposite in2="hardAlpha" operator="out"/>
<feColorMatrix type="matrix" values="0 0 0 0 0 0 0 0 0 0 0 0 0 0 0 0 0 0 0.6 0"/>
<feBlend mode="normal" in2="BackgroundImageFix" result="effect1_dropShadow_1346_275"/>
<feBlend mode="normal" in="SourceGraphic" in2="effect1_dropShadow_1346_275" result="shape"/>
</filter>
<linearGradient id="paint0_linear_1346_275" x1="24.9" y1="59.9746" x2="447.965" y2="347.126" gradientUnits="userSpaceOnUse">
<stop stop-color="white"/>
<stop offset="0.25" stop-color="#FFFAFF"/>
<stop offset="0.514423" stop-color="#C6FFD0"/>
<stop offset="0.783654" stop-color="#B4E4BE"/>
<stop offset="1" stop-color="#A8A8A8"/>
</linearGradient>
</defs>
</svg>
