<svg width="23" height="23" viewBox="0 0 23 23" fill="none" xmlns="http://www.w3.org/2000/svg">
<path d="M22.8307 0.475697C22.7359 0.329741 22.6061 0.209786 22.4531 0.126714C22.3001 0.0436422 22.1287 9.90662e-05 21.9547 1.54299e-05H15.6819C15.4877 -7.02974e-05 15.2972 0.0539713 15.1319 0.156091C14.9666 0.258211 14.8331 0.404366 14.7462 0.578152L11.5001 7.07147L8.25923 0.578152C8.17199 0.403571 8.03763 0.256894 7.87134 0.154711C7.70506 0.052539 7.51349 -0.00104466 7.31832 1.54299e-05H1.04559C0.87141 -1.29739e-06 0.699976 0.0434959 0.54688 0.126568C0.393783 0.209629 0.263865 0.329637 0.168927 0.475666C0.0739996 0.621705 0.0170536 0.789145 0.00327455 0.962785C-0.0104993 1.13642 0.0193224 1.31075 0.0900474 1.46992L4.95455 12.4294C4.44725 13.4386 4.1827 14.5523 4.18196 15.6818C4.18196 17.6227 4.95298 19.4841 6.3254 20.8566C7.69782 22.229 9.55922 23 11.5001 23C13.441 23 15.3024 22.229 16.6749 20.8566C18.0473 19.4841 18.8183 17.6227 18.8183 15.6818C18.8176 14.5523 18.5531 13.4386 18.0457 12.4294L22.9102 1.46992C22.9809 1.31071 23.0106 1.13636 22.9967 0.962732C22.9829 0.789103 22.9258 0.621684 22.8307 0.475697ZM2.6535 2.09093H6.67223L9.89952 8.54557C8.56901 8.84557 7.34896 9.51186 6.37741 10.4692L2.6535 2.09093ZM11.5001 20.9091C10.4663 20.9091 9.45562 20.6026 8.59602 20.0282C7.7364 19.4538 7.06641 18.6374 6.67077 17.6822C6.27513 16.7271 6.17162 15.6761 6.3733 14.6621C6.575 13.6481 7.07285 12.7166 7.80389 11.9856C8.53495 11.2545 9.46639 10.7567 10.4804 10.555C11.4944 10.3533 12.5454 10.4568 13.5005 10.8524C14.4557 11.2482 15.2721 11.9181 15.8465 12.7778C16.4209 13.6373 16.7274 14.648 16.7274 15.6818C16.7257 17.0677 16.1744 18.3963 15.1945 19.3762C14.2146 20.3562 12.886 20.9074 11.5001 20.9091ZM16.6281 10.4692C15.6551 9.51103 14.4331 8.84466 13.1007 8.54557L16.328 2.09093H20.3467L16.6281 10.4692ZM14.6365 14.9416L12.8937 16.3791L13.4384 18.8182L11.5001 17.4246L9.56184 18.8182L10.1065 16.3791L8.36378 14.9416L10.4547 14.6364L11.5001 12.5455L12.5456 14.6364L14.6365 14.9416Z" fill="#40FD51"/>
</svg>
